<svg width="215" height="32" viewBox="0 0 215 32" fill="none" xmlns="http://www.w3.org/2000/svg">
<g clip-path="url(#clip0_301_2408)">
<path d="M57.2887 1.86841H57.8568L60.4967 11.1764L56.6538 25.2399H49.9707L57.2887 1.86841ZM64.8072 21.0955H59.2268L60.6302 15.8641H63.3034L59.3604 1.86841H65.4755L72.7935 25.2399H65.9767L64.8072 21.0955Z" fill="white"/>
<path d="M85.7428 25.4778C84.9407 25.4778 84.2836 25.4097 83.7713 25.2738C83.2589 25.1608 82.7798 24.9229 82.3343 24.5605V20.2462H82.7019C83.192 20.2462 83.5374 20.2236 83.7379 20.1784C83.9606 20.1105 84.1276 19.9746 84.2391 19.7707C84.3503 19.5215 84.4173 19.1593 84.4396 18.6838C84.4618 18.3439 84.4729 17.6418 84.4729 16.5775C84.4729 15.5132 84.4618 14.8111 84.4396 14.4713C84.4173 13.9731 84.3503 13.6107 84.2391 13.3843C84.15 13.1578 83.9829 13.0219 83.7379 12.9767C83.4259 12.9314 83.0807 12.9088 82.7019 12.9088H82.3343V8.59458C82.7798 8.25474 83.2701 8.01708 83.8046 7.88119C84.3615 7.7453 85.0075 7.67725 85.7428 7.67725C86.6339 7.67725 87.3912 7.82445 88.015 8.11885C88.661 8.41325 89.1845 8.88898 89.5855 9.54562C90.3653 10.8591 90.755 13.1804 90.755 16.5097C90.755 19.8159 90.3653 22.1487 89.5855 23.5074C88.8059 24.8209 87.5249 25.4778 85.7428 25.4778ZM74.749 7.91511H80.9309V32H74.749V7.91511Z" fill="white"/>
<path d="M105.061 25.4778C104.259 25.4778 103.602 25.4097 103.089 25.2738C102.577 25.1608 102.098 24.9229 101.653 24.5605V20.2462H102.02C102.51 20.2462 102.856 20.2236 103.056 20.1784C103.279 20.1105 103.446 19.9746 103.557 19.7707C103.669 19.5215 103.736 19.1593 103.758 18.6838C103.78 18.3439 103.791 17.6418 103.791 16.5775C103.791 15.5132 103.78 14.8111 103.758 14.4713C103.736 13.9731 103.669 13.6107 103.557 13.3843C103.468 13.1578 103.301 13.0219 103.056 12.9767C102.744 12.9314 102.399 12.9088 102.02 12.9088H101.653V8.59458C102.098 8.25474 102.588 8.01708 103.123 7.88119C103.68 7.7453 104.326 7.67725 105.061 7.67725C105.952 7.67725 106.709 7.82445 107.333 8.11885C107.979 8.41325 108.503 8.88898 108.904 9.54562C109.684 10.8591 110.073 13.1804 110.073 16.5097C110.073 19.8159 109.684 22.1487 108.904 23.5074C108.124 24.8209 106.843 25.4778 105.061 25.4778ZM94.0673 7.91511H100.249V32H94.0673V7.91511Z" fill="white"/>
<path d="M113.653 2.81966V1.86841H120.336L133.235 24.2548V25.2399H126.585L113.653 2.81966ZM126.886 10.3949V1.86841H133.235V21.4353L126.886 10.3949ZM113.653 5.63908L120.002 16.6795V25.2399H113.653V5.63908Z" fill="white"/>
<path d="M146.026 14.5054C146.026 13.9166 146.004 13.4976 145.96 13.2484C145.915 12.9993 145.781 12.8181 145.559 12.7049C145.358 12.5916 144.979 12.5124 144.423 12.467C144.088 12.4444 143.364 12.4331 142.251 12.4331C141.181 12.4331 140.19 12.4785 139.277 12.569L137.506 12.6709V8.25472C139.6 7.84704 141.861 7.64331 144.289 7.64331C146.16 7.64331 147.619 7.7792 148.666 8.05099C149.736 8.32278 150.537 8.75307 151.072 9.34187C151.54 9.88544 151.841 10.576 151.974 11.414C152.13 12.252 152.208 13.4182 152.208 14.9129V25.2399H146.026V14.5054ZM141.081 25.4778C139.544 25.4778 138.408 25.0475 137.673 24.1869C136.937 23.3037 136.57 21.9787 136.57 20.2123C136.57 19.1253 136.648 18.2534 136.804 17.5966C136.96 16.9171 137.227 16.3851 137.606 16C137.985 15.5923 138.508 15.3092 139.176 15.1507C139.845 14.9696 140.725 14.8789 141.816 14.8789L144.623 14.947V17.9703H144.289C143.777 17.9703 143.442 17.9817 143.286 18.0043C142.841 18.0269 142.607 18.2421 142.585 18.6496C142.562 18.7855 142.551 19.0686 142.551 19.4989C142.551 19.8387 142.562 20.099 142.585 20.2803C142.629 20.4614 142.696 20.6086 142.785 20.7219C142.897 20.8804 143.064 20.9709 143.286 20.9937C143.598 21.0389 143.933 21.0616 144.289 21.0616H144.623V24.5265C144.133 24.9116 143.609 25.1608 143.053 25.2738C142.518 25.4097 141.861 25.4778 141.081 25.4778Z" fill="white"/>
<path d="M154.472 7.91508H157.613V2.88745H163.795V7.91508H167.537V12.7048H154.472V7.91508ZM157.613 14.0638H163.795V25.2399H157.613V14.0638Z" fill="white"/>
<path d="M170.035 0H176.217V4.89173H170.035V0ZM170.035 7.91509H176.217V25.2399H170.035V7.91509Z" fill="white"/>
<path d="M189.544 16.6114C189.544 15.4564 189.533 14.6865 189.511 14.3014C189.488 13.7579 189.422 13.3504 189.31 13.0786C189.199 12.7842 189.021 12.6029 188.776 12.535C188.508 12.467 188.141 12.4331 187.673 12.4331H187.205V7.64331H187.673C189.611 7.64331 191.126 7.80182 192.218 8.11883C193.309 8.41323 194.122 8.91158 194.657 9.61366C195.147 10.2477 195.459 11.097 195.592 12.1613C195.748 13.2032 195.826 14.6865 195.826 16.6114C195.826 18.4006 195.771 19.7933 195.659 20.7898C195.57 21.7636 195.336 22.5677 194.958 23.2017C194.534 23.9038 193.899 24.4361 193.053 24.7983C192.206 25.1379 191.037 25.3532 189.544 25.4438V16.6114ZM187.673 25.5117C185.735 25.5117 184.22 25.3645 183.128 25.0701C182.037 24.7757 181.224 24.2773 180.689 23.5755C180.199 22.9412 179.876 22.1033 179.72 21.0616C179.587 20.0198 179.52 18.5365 179.52 16.6114C179.52 14.845 179.575 13.4635 179.687 12.467C179.798 11.4707 180.043 10.6441 180.422 9.9872C180.823 9.26251 181.447 8.73046 182.293 8.39062C183.14 8.02838 184.309 7.80182 185.802 7.71115V16.6114C185.802 17.7664 185.813 18.5252 185.835 18.8875C185.857 19.431 185.924 19.8387 186.036 20.1105C186.147 20.3821 186.336 20.5521 186.604 20.62C186.826 20.688 187.183 20.7219 187.673 20.7219H188.141V25.5117H187.673Z" fill="white"/>
<path d="M208.801 17.053C208.801 15.8528 208.79 15.0601 208.767 14.6752C208.723 14.041 208.667 13.6222 208.6 13.4183C208.511 13.1919 208.355 13.056 208.132 13.0106C207.91 12.9427 207.553 12.9088 207.063 12.9088H206.729V8.66242C207.598 8.00578 208.734 7.67725 210.138 7.67725C212.143 7.67725 213.491 8.30018 214.181 9.54562C214.492 10.0892 214.704 10.7574 214.815 11.5499C214.927 12.3198 214.983 13.2711 214.983 14.4034V25.2399H208.801V17.053ZM199.144 7.91511H205.325V25.2399H199.144V7.91511Z" fill="white"/>
<path d="M38.4159 0L25.1919 30.6784L26.3586 32H32.8645L46.6579 0H38.4159Z" fill="white"/>
<path d="M18.4821 11.7178L15.1831 19.3717L26.3586 32H32.8644L34.0309 29.289L18.4821 11.7178Z" fill="white"/>
<path d="M20.2993 0H13.7933L0 32H8.24475L21.4687 1.3216L20.2993 0Z" fill="white"/>
<path d="M21.2285 1.04917L20.299 0H13.7931L12.6265 2.71104L28.1782 20.2822L31.4771 12.6281L21.2285 1.04917Z" fill="white"/>
</g>
<defs>
<clipPath id="clip0_301_2408">
<rect width="215" height="32" fill="white"/>
</clipPath>
</defs>
</svg>
